<?xml version="1.0" standalone="no"?>
<!DOCTYPE svg PUBLIC "-//W3C//DTD SVG 20010904//EN"
 "http://www.w3.org/TR/2001/REC-SVG-20010904/DTD/svg10.dtd">
<svg version="1.0" xmlns="http://www.w3.org/2000/svg"
 width="512.000000pt" height="512.000000pt" viewBox="0 0 512.000000 512.000000"
 preserveAspectRatio="xMidYMid meet">

<g transform="translate(0.000000,512.000000) scale(0.100000,-0.100000)"
fill="#334155" stroke="nome">
<path d="M2490 5011 c-59 -19 -116 -60 -520 -370 -406 -312 -512 -391 -524
-391 -3 0 -6 72 -6 160 l0 160 -320 0 -320 0 0 -380 c0 -402 -2 -422 -48 -473
-22 -25 -142 -120 -408 -324 -181 -139 -214 -170 -239 -214 -90 -165 37 -343
245 -343 64 0 84 5 135 31 57 29 589 431 1480 1117 215 165 424 326 466 358
95 73 128 84 183 59 23 -10 124 -83 226 -163 102 -79 379 -293 615 -474 237
-182 531 -408 655 -504 523 -404 540 -415 665 -414 154 0 266 100 267 239 1
63 -25 115 -84 171 -24 23 -362 286 -753 586 -390 300 -879 674 -1085 833
-206 158 -399 299 -429 313 -57 26 -157 38 -201 23z"/>
<path d="M1836 3090 c-41 -13 -94 -68 -106 -110 -5 -19 -10 -140 -10 -267 l0
-233 310 0 310 0 0 310 0 310 -237 -1 c-131 0 -251 -5 -267 -9z"/>
<path d="M2780 2790 l0 -310 310 0 310 0 0 233 c0 127 -4 248 -10 266 -13 46
-65 99 -110 111 -19 5 -140 10 -267 10 l-233 0 0 -310z"/>
<path fill="#64748b" d="M4875 2199 c-55 -9 -215 -36 -355 -59 -140 -23 -302 -52 -360 -66
 -225 -52 -417 -130 -564 -228 -362 -241 -651 -844 -691 -1441 -3 -49 -8 -101
 -11 -114 -4 -21 3 -17 63 30 313 245 658 552 959 852 122 120 227 218 233 216
14 -5 -118 -156 -307 -354 -167 -175 -471 -467 -666 -639 -88 -78 -174 -153
 -190 -168 l-31 -28 45 5 c25 3 92 9 150 15 352 36 740 164 992 325 430 277
712 722 808 1275 18 109 40 402 29 399 -2 -1 -49 -10 -104 -20z"/>
<path d="M1722 1858 c3 -243 4 -254 26 -290 13 -21 40 -45 66 -57 39 -19 60
-21 284 -21 l242 0 0 310 0 310 -311 0 -310 0 3 -252z"/>
<path d="M2780 1800 l0 -310 118 0 117 0 37 64 c62 106 157 227 255 324 l94
93 -3 67 -3 67 -307 3 -308 2 0 -310z"/>
<path fill="#64748b" d="M1265 1126 c-157 -30 -362 -95 -408 -128 -15 -12 -2 -34 124 -217
214 -310 307 -418 443 -516 227 -162 565 -204 945 -119 107 24 345 104 363
122 5 5 -21 58 -58 119 -234 391 -517 624 -874 720 -82 21 -121 26 -280 29
-127 2 -207 -1 -255 -10z"/>
</g>
</svg>
